<?xml version="1.0" encoding="UTF-8"?>
<!DOCTYPE svg PUBLIC "-//W3C//DTD SVG 1.1//EN" "http://www.w3.org/Graphics/SVG/1.1/DTD/svg11.dtd">
<!-- Creator: CorelDRAW -->
<svg xmlns="http://www.w3.org/2000/svg" xml:space="preserve" width="279.4mm" height="140mm" style="shape-rendering:geometricPrecision; text-rendering:geometricPrecision; image-rendering:optimizeQuality; fill-rule:evenodd; clip-rule:evenodd"
viewBox="0 0 279.4 140"
 version="1.1">
 <defs>
  <style type="text/css">
   <![CDATA[
    .str0 {stroke:#1F1A17;stroke-width:0.3817;stroke-linecap:round;stroke-linejoin:round}
    .fil1 {fill:#1F1A17}
    .fil0 {fill:#31A463}
    .fil2 {fill:#1F1A17;fill-rule:nonzero}
   ]]>
  </style>
 </defs>
 <g id="Capa_x0020_1">
  <metadata id="CorelCorpID_0Corel-Layer"/>
  <path class="fil0" d="M135.305 3.7456c4.255,0 10.7273,-0.5339 14.4344,0.8145 0.585,0.2534 0.7173,1.2464 0.075,1.5094 -1.213,0.7109 -2.6906,0.6854 -4.0533,0.7013 -1.2816,-0.0669 -2.5471,0.212 -3.827,0.1801 -0.8942,-0.0095 -1.7916,-0.0573 -2.681,0.0511 -1.5939,0.255 -3.2133,0.0398 -4.8088,0.2741 -1.817,-0.008 -3.6054,0.3602 -5.4193,0.4096 -1.868,0.1005 -3.7137,0.4288 -5.577,0.5531 -1.6673,-0.008 -3.2691,0.5372 -4.9316,0.5961 -2.6044,0.3236 -5.2041,0.6902 -7.791,1.1317 -2.0689,0.5069 -4.2063,0.6519 -6.264,1.2018 -3.3185,0.5005 -6.543,1.4473 -9.8329,2.0896 -1.334,0.2439 -2.5996,0.7731 -3.9448,0.9675 -2.5105,0.5898 -4.9969,1.2879 -7.4659,2.0307 -1.6274,0.263 -3.132,0.9499 -4.7196,1.3627 -4.3322,1.3549 -8.658,2.732 -12.9409,4.2414 -1.6034,0.4814 -3.1097,1.2353 -4.7291,1.6705 -2.3892,0.832 -4.7785,1.6656 -7.1152,2.6363 -1.8585,0.8591 -3.8046,1.5238 -5.6042,2.5103 -0.875,0.4894 -1.8521,0.7604 -2.708,1.2832 -0.9245,0.5706 -1.9206,1.0121 -2.8563,1.562 -3.0045,1.6066 -5.84,3.5082 -8.6469,5.4336 -0.9707,0.6519 -1.8426,1.4361 -2.783,2.1279 -1.2097,0.9005 -2.3048,1.9398 -3.4651,2.9009 -0.9356,0.7603 -1.7518,1.6513 -2.6077,2.4992 -0.8638,0.8894 -1.7931,1.7199 -2.5773,2.6858 -2.9073,3.2452 -5.5866,6.7422 -7.5296,10.6584 -1.0488,1.8346 -1.6003,3.8875 -2.2665,5.8767 -0.2742,0.84 -0.3666,1.7215 -0.5675,2.579 -0.4287,1.7023 -0.1466,3.4683 -0.2375,5.2009 -0.1004,1.3612 0.2901,2.6746 0.5356,3.9975 1.256,5.609 4.4629,10.566 8.2484,14.8106 1.5047,1.519 3.0061,3.0427 4.5395,4.533 2.1757,1.8825 4.3816,3.7378 6.7263,5.4066 2.1007,1.4472 4.3465,2.665 6.5414,3.9608 2.7,1.5605 5.483,2.9679 8.2867,4.3323 2.4402,1.2958 4.9682,2.4195 7.5089,3.5034 1.1014,0.5785 2.3095,0.9069 3.4269,1.4488 1.7102,0.73 3.4412,1.4106 5.2072,1.9972 1.1524,0.467 2.3064,0.9276 3.4955,1.2974 4.3275,1.5955 8.8031,2.7176 13.2469,3.9354 2.088,0.5084 4.1378,1.1747 6.2529,1.5732 3.1942,0.8782 6.4617,1.4616 9.6878,2.2107 2.5056,0.432 4.965,1.1189 7.4881,1.4616 1.1763,0.1148 2.3064,0.5053 3.4891,0.5818 1.1364,0.0733 2.2155,0.4941 3.3536,0.5515 1.2879,0.0813 2.5439,0.4128 3.8286,0.5276 0.6535,0.0589 1.3038,0.1546 1.9509,0.2694 1.6338,0.3108 3.3105,0.2932 4.9427,0.6231 1.0711,0.2312 2.1677,0.2105 3.2547,0.2902 2.0466,0.3028 4.1155,0.4112 6.1748,0.5992 1.119,0.1196 2.2506,-0.0111 3.3648,0.1658 1.4663,0.2311 2.9599,-0.0255 4.4279,0.2041 1.7389,0.1067 3.4715,0.3076 5.2152,0.2805 2.9025,0.3363 5.8321,0.0351 8.7426,0.1976 1.5333,0.2598 3.0921,0.1339 4.6398,0.1578 4.3562,0 8.7123,0.0032 13.0684,0 1.009,0.0016 2.0259,0.0574 3.0285,-0.1004 0.8957,-0.1482 1.8059,-0.0988 2.7128,-0.0924 0.9053,0.0079 1.7979,-0.1818 2.7049,-0.1818 0.9945,-0.0111 1.9955,0.0654 2.9885,-0.0701 1.0982,-0.1578 2.2156,-0.0542 3.3154,-0.204 0.765,-0.1052 1.5381,-0.0925 2.3095,-0.0925 1.1763,0.0096 2.3223,-0.3156 3.4971,-0.349 1.6544,-0.0351 3.2882,-0.3475 4.9442,-0.3873 1.0744,-0.0144 2.1231,-0.271 3.191,-0.3491 1.884,-0.0606 3.7282,-0.4909 5.593,-0.7268 1.6657,-0.118 3.2883,-0.5356 4.9412,-0.7476 2.0896,-0.4781 4.2318,-0.6551 6.3134,-1.1699 2.8579,-0.4591 5.6648,-1.1827 8.4876,-1.8202 2.0178,-0.3316 3.9736,-0.95 5.9771,-1.3516 2.1247,-0.4033 4.2191,-0.9452 6.3374,-1.3708 1.1253,-0.3443 2.3112,-0.4304 3.4285,-0.8081 0.9101,-0.2917 1.8776,-0.3172 2.7893,-0.6073 0.8049,-0.2216 1.637,-0.5196 2.4849,-0.3794 0.255,0.0542 0.5132,0.1738 0.6726,0.3937 0.1291,0.4113 -0.086,0.8751 -0.4128,1.1349 -1.4504,1.1094 -3.1958,1.7007 -4.8184,2.4977 -1.6831,0.5849 -3.3392,1.2448 -5.0192,1.8345 -2.5662,0.8033 -5.161,1.5111 -7.7671,2.1741 -1.3102,0.4606 -2.6889,0.6535 -4.015,1.0504 -1.8298,0.4973 -3.6644,0.9802 -5.5213,1.3628 -0.9835,0.1833 -1.9159,0.5626 -2.9025,0.7204 -0.9532,0.1435 -1.876,0.4256 -2.8276,0.5627 -0.6615,0.0972 -1.3245,0.1928 -1.9717,0.3538 -1.0791,0.2662 -2.1948,0.3252 -3.2738,0.5866 -1.0584,0.2407 -2.1502,0.2693 -3.2086,0.5021 -2.5343,0.6439 -5.169,0.7029 -7.724,1.2464 -1.154,0.2582 -2.3478,0.1498 -3.5019,0.3841 -1.3707,0.3045 -2.7845,0.263 -4.1664,0.4974 -2.1359,0.3729 -4.3195,0.306 -6.4569,0.6821 -1.1923,0.2248 -2.4116,0.0829 -3.6102,0.2264 -1.0345,0.1179 -2.0673,0.255 -3.1066,0.2789 -0.4096,-0.0064 -0.7969,0.1307 -1.1699,0.2757l-29.0553 0c-0.373,-0.1402 -0.7491,-0.298 -1.154,-0.2821 -1.2575,-0.0032 -2.5215,0.0972 -3.7728,-0.0717 -1.903,-0.2407 -3.8285,0.0701 -5.73,-0.1849 -1.8601,-0.247 -3.7425,0.0414 -5.6042,-0.1658 -0.9069,-0.1163 -1.8218,-0.0717 -2.7304,-0.1562 -1.3293,-0.1737 -2.673,-0.153 -4.0055,-0.2916 -1.2878,0.0254 -2.5534,-0.2439 -3.8381,-0.2296 -1.2002,-0.0016 -2.359,-0.3586 -3.548,-0.4654 -1.3867,-0.1355 -2.7606,-0.3698 -4.1362,-0.5882 -1.6608,-0.1561 -3.293,-0.5148 -4.949,-0.6949 -1.0249,-0.1115 -1.9925,-0.4989 -3.0142,-0.6121 -0.8064,-0.0924 -1.6146,-0.1769 -2.4067,-0.3522 -0.9962,-0.2295 -2.0259,-0.2662 -3.0125,-0.5387 -1.2512,-0.3571 -2.5487,-0.4718 -3.8206,-0.7221 -1.6625,-0.196 -3.2532,-0.7396 -4.9045,-1.0009 -1.401,-0.4001 -2.861,-0.5292 -4.2525,-0.9596 -1.6577,-0.3666 -3.3265,-0.6822 -4.9634,-1.1285 -1.6832,-0.4813 -3.4221,-0.7428 -5.083,-1.2942 -1.3851,-0.4463 -2.8356,-0.6376 -4.2191,-1.0855 -1.8728,-0.5419 -3.7711,-1.0153 -5.5961,-1.7118 -2.0099,-0.7125 -4.0597,-1.3134 -6.0441,-2.0976 -13.4303,-5.0973 -26.3808,-11.6594 -37.9461,-20.2235 -0.7699,-0.6121 -1.433,-1.342 -2.1311,-2.029 -1.1875,-1.2034 -2.4036,-2.3781 -3.5815,-3.5911 -1.1938,-1.3564 -2.3494,-2.7447 -3.4779,-4.1569 -1.9414,-2.402 -3.5942,-5.0272 -4.9842,-7.7846 -0.5036,-1.0727 -1.0742,-2.1247 -1.3818,-3.2771 -0.6201,-1.7405 -1.0839,-3.5385 -1.3166,-5.373 -0.1212,-1.3182 -0.0191,-2.6428 -0.051,-3.9625 -0.0351,-1.6369 0.0111,-3.2914 0.4112,-4.8869 0.2072,-0.8145 0.2996,-1.6513 0.4782,-2.4706 0.3714,-1.5764 0.8941,-3.1145 1.1874,-4.7084 0.3587,-1.4903 0.7699,-2.9838 1.4823,-4.3481 1.1939,-2.7177 2.7894,-5.2312 4.4837,-7.6603 1.5859,-2.1534 3.2213,-4.2893 5.1722,-6.1318 1.4314,-1.3835 2.7543,-2.8866 4.3052,-4.1442 3.2404,-2.8196 6.6816,-5.4097 10.3141,-7.7033 3.7856,-2.3654 7.5918,-4.7578 11.7455,-6.4298 1.5015,-0.7508 3.1113,-1.2385 4.6526,-1.8968 3.1066,-1.3357 6.3279,-2.3813 9.4902,-3.5735 1.9142,-0.8352 3.9895,-1.2034 5.9181,-1.994 1.0392,-0.3745 2.1295,-0.5882 3.1639,-0.977 1.4186,-0.5181 2.9424,-0.6743 4.3434,-1.2465 1.0679,-0.4335 2.2331,-0.5036 3.3217,-0.8702 0.9086,-0.3029 1.8378,-0.542 2.7814,-0.7046 0.9675,-0.1625 1.8856,-0.518 2.8307,-0.7682 2.6475,-0.5611 5.3094,-1.0568 7.9345,-1.7151 2.7447,-0.4733 5.4814,-0.9818 8.2166,-1.5014 1.4951,-0.0893 2.9216,-0.6264 4.4215,-0.6679 1.3994,-0.0526 2.7511,-0.4797 4.1489,-0.5339 1.6194,-0.0973 3.2229,-0.3555 4.812,-0.6711 2.0131,-0.1896 4.0342,-0.3076 6.0425,-0.553 4.2107,-0.6603 16.1194,-1.3122 20.606,-1.425z"/>
  <g id="__x0023_131516ff">
   <path id="_179250136" class="fil1" d="M269.87 53.6904c0.8464,-0.0877 1.7086,-0.0957 2.5598,-0.0208 0.6647,0.2152 1.3134,0.534 1.884,0.942 0.5834,0.5866 1.2799,1.1222 1.5939,1.9175 0.5117,1.0632 0.4686,2.2745 0.4527,3.4253 0.0064,1.1333 -0.6886,2.1279 -1.4314,2.9232 -1.0296,0.891 -2.3079,1.7438 -3.7329,1.6099 -1.1444,-0.0638 -2.3255,-0.263 -3.2723,-0.9548 -2.3637,-1.5126 -3.1383,-4.9953 -1.605,-7.3479 0.8702,-1.1779 2.0306,-2.3016 3.5512,-2.4944m0.1482 1.1093c-0.9484,0.2088 -1.8712,0.7141 -2.4387,1.519 -0.6471,0.9532 -1.0774,2.1359 -0.9324,3.2978 0.2407,0.9022 0.6057,1.8171 1.3198,2.4562 1.4728,1.7039 4.4167,1.7454 5.9915,0.1514 0.9818,-0.8192 1.4632,-2.1358 1.3341,-3.3998 0.0637,-1.4377 -0.7555,-2.8371 -2.01,-3.5257 -0.9515,-0.6487 -2.1676,-0.6631 -3.2643,-0.4989z"/>
   <path id="_179250064" class="fil1" d="M39.1526 54.932c2.2968,-0.4367 4.6685,-0.8065 7.002,-0.4319 1.7134,0.0398 3.4125,0.4192 5.0065,1.0456 1.2241,0.2741 2.249,1.0201 3.2802,1.6911 0.5659,0.3842 1.0632,0.8544 1.5987,1.2767 0.5945,0.4623 0.9787,1.1253 1.5095,1.6529 0.4861,0.4894 0.765,1.154 1.3054,1.5939 0.9165,-1.2225 1.9158,-2.3988 3.1192,-3.3488 1.2433,-0.84 2.5152,-1.6752 3.9465,-2.1565 0.6822,-0.212 1.3293,-0.5483 2.0466,-0.6296 1.0727,-0.1419 2.104,-0.5595 3.1974,-0.5324 1.2767,0.0127 2.5534,0 3.8301,0.0048 1.1907,-0.0016 2.3192,0.424 3.4875,0.5897 0.8894,0.1467 1.6481,0.6679 2.4817,0.9819 1.5987,0.6089 2.9631,1.6831 4.2525,2.7814 2.2427,2.1326 3.6836,5.0096 4.3737,7.9998 0.067,1.0121 0.2901,2.0051 0.3778,3.0124 0.0398,2.8149 -0.0351,5.6345 0.0319,8.4493 0.2932,1.5254 0.1179,3.0826 0.1673,4.6255 0.0399,1.178 -0.051,2.3686 -0.3714,3.5066 -0.2693,0.8607 -1.2129,1.2752 -2.0481,1.3485 -0.8496,0.1068 -1.6657,-0.2933 -2.3367,-0.7731 -0.7571,-0.9165 -0.5897,-2.1804 -0.5945,-3.285 0.0414,-1.5429 -0.1195,-3.097 0.1546,-4.6255 0.0669,-1.6975 -0.0032,-3.3982 0.0319,-5.0973 0.0414,-0.966 -0.2614,-1.9063 -0.1865,-2.8723 0.0749,-0.9133 -0.2088,-1.7883 -0.4192,-2.6618 -0.4192,-2.9758 -2.1821,-5.8289 -4.8503,-7.2889 -0.7587,-0.4606 -1.621,-0.6965 -2.4259,-1.0568 -1.7596,-0.5785 -3.642,-0.526 -5.4687,-0.4574 -0.9133,0.1371 -1.8553,0.1721 -2.7272,0.5037 -1.0328,0.4207 -2.1454,0.6885 -3.0571,1.3596 -0.6312,0.4718 -1.3532,0.8655 -1.8138,1.5237 -0.5165,0.7269 -1.0934,1.4314 -1.4074,2.2777 -0.2519,0.6838 -0.5707,1.3421 -0.7635,2.0466 -0.322,1.5525 -0.4702,3.132 -0.6392,4.7068 -0.0111,4.1999 -0.0016,8.4031 -0.0032,12.603 -0.0175,0.6615 -0.0988,1.3246 -0.2598,1.9653 -0.6264,0.9181 -1.8378,1.2177 -2.8945,1.1349 -0.5228,0.0095 -0.9707,-0.3093 -1.3166,-0.6695 -0.3475,-0.357 -0.7332,-0.7778 -0.6933,-1.315 0.0031,-4.4119 0.0031,-8.8222 0.0016,-13.2341 -0.0096,-0.9771 0.0653,-1.9637 -0.11,-2.9312 -0.153,-1.2321 -0.2503,-2.4961 -0.7316,-3.6549 -0.6519,-1.385 -1.4218,-2.7367 -2.4881,-3.8477 -0.6248,-0.4988 -1.1938,-1.071 -1.876,-1.4934 -0.7109,-0.4575 -1.5254,-0.7046 -2.2889,-1.0504 -0.7157,-0.3395 -1.511,-0.4065 -2.2825,-0.5165 -3.0523,-0.5466 -6.2385,0.1913 -8.9051,1.7183 -1.9955,1.0663 -3.3759,3.0332 -4.082,5.1467 -0.2582,1.2018 -0.8719,2.3383 -0.8177,3.5958 0.059,1.0313 -0.4016,2.0004 -0.3697,3.0285 0.0079,1.5445 0.0063,3.0874 0,4.6319 -0.0096,0.7491 0.2183,1.4759 0.1976,2.2266 -0.0143,2.0737 -0.0032,4.149 -0.0032,6.2227 0.0208,1.2448 -1.2241,2.2729 -2.4355,2.1517 -0.8878,0.0654 -1.8553,-0.3028 -2.3494,-1.0647 -0.2901,-0.526 -0.3953,-1.1332 -0.3841,-1.7278 0.0223,-4.4661 -0.0112,-8.9323 0.0159,-13.3984 0.1227,-0.8909 0.1737,-1.7867 0.2152,-2.6857 0.2726,-1.5063 0.1992,-3.0922 0.8511,-4.5092 0.679,-2.9598 2.7176,-5.4208 5.0941,-7.2188 1.7645,-1.2783 3.7314,-2.2649 5.8242,-2.869z"/>
   <path id="_179249992" class="fil1" d="M222.909 55.7959c0.6233,-0.7252 1.6912,-0.5308 2.5392,-0.4973 1.0121,0.1387 1.3867,1.2433 1.546,2.1119 0.0766,1.3708 -0.0302,2.7464 0.0415,4.1171 0.9627,0.0415 1.927,-0.0111 2.8913,0.0096 0.6854,0.0015 1.3644,0.3681 1.7741,0.9149 0.3395,0.7842 0.4287,1.7214 0.027,2.5024 -0.2375,0.7491 -1.0472,1.1858 -1.7995,1.1779 -0.9659,0.0144 -1.9302,-0.0351 -2.8945,0.0159 -0.043,5.6361 -0.008,11.2737 -0.0159,16.9114 0.0079,1.0615 0.1052,2.2745 -0.6456,3.1336 -0.5722,0.7683 -1.6401,0.7937 -2.5072,0.722 -1.0073,-0.1259 -1.5445,-1.1874 -1.6353,-2.0959 -0.0032,-6.1605 0,-12.321 0,-18.4814 -1.2481,-0.0781 -2.7256,0.2184 -3.7377,-0.7013 -0.73,-0.585 -0.781,-1.6162 -0.6424,-2.4706 0.11,-0.4845 0.2534,-1.0615 0.7635,-1.2735 1.1221,-0.5626 2.4116,-0.2773 3.615,-0.3714 0.0143,-1.2703 -0.0096,-2.5406 -0.0048,-3.811 -0.0128,-0.695 0.3124,-1.3468 0.6853,-1.9143z"/>
   <path id="_179249920" class="fil1" d="M136.574 57.8712c-0.0112,-0.8751 0.4096,-1.833 1.2496,-2.19 0.8655,-0.1259 1.7581,-0.0048 2.5949,0.2327 0.4925,0.3698 0.8144,1.0121 0.773,1.6369 -0.0191,4.1983 0.0016,8.3983 -0.0111,12.5967 -0.0176,0.5514 -0.0016,1.1045 0.0589,1.6544 2.1949,0.0925 4.3961,0.0112 6.594,0.0383 1.8872,0.0797 3.8015,-0.2232 5.558,-0.9261 0.8718,-0.3251 1.4791,-1.0568 2.1135,-1.7023 0.569,-0.5738 0.8655,-1.3484 1.1141,-2.1039 0.2583,-0.9436 0.6902,-1.8378 0.8289,-2.8149 0.1769,-0.9308 0.4526,-1.9668 1.2942,-2.5167 0.7443,-0.1419 1.6003,-0.1387 2.2267,0.3522 0.3985,0.3236 0.8623,0.671 0.9946,1.1938 0.1769,1.5445 -0.102,3.097 -0.4383,4.6001 -0.475,1.1412 -0.7954,2.3669 -1.5174,3.3886 -0.6998,1.0822 -1.731,1.8744 -2.5965,2.81 0.5675,0.6551 1.0887,1.3533 1.7326,1.9398 1.9222,1.9669 2.9312,4.7387 2.861,7.477 -0.0366,0.915 0.1387,1.8952 -0.3044,2.7416 -0.4033,0.7061 -1.1731,1.342 -2.037,1.1795 -0.6424,-0.1818 -1.2512,-0.4989 -1.7868,-0.8942 -0.6009,-0.7476 -0.4207,-1.7677 -0.5467,-2.6539 -0.2773,-1.4249 -0.5052,-2.9009 -1.2336,-4.1824 -0.9899,-1.7724 -2.995,-2.7335 -4.9268,-3.0682 -1.0153,0.0079 -2.002,-0.2854 -3.0173,-0.2359 -1.7581,0.0207 -3.5145,-0.0032 -5.271,0.0063 -0.5786,-0.0048 -1.1349,0.1594 -1.6944,0.2789 0,0.95 -0.0287,1.9 0.008,2.85 0.271,1.8967 0.2311,3.8333 -0.0048,5.7316 0.0478,1.103 -1.0185,2.1359 -2.1199,2.0211 -0.7284,0.0144 -1.6369,-0.1052 -2.0019,-0.832 -0.6089,-0.9197 -0.4989,-2.0561 -0.4925,-3.1034 0.0016,-8.5018 0.0032,-17.0037 -0.0016,-25.5056z"/>
   <path id="_179249848" class="fil1" d="M268.662 56.2374c1.0074,-0.051 2.0163,-0.0271 3.0252,-0.0318 0.6535,-0.0654 1.1158,0.5036 1.4983,0.9515 0.1658,0.4973 0.1419,1.1221 -0.2088,1.5413 -0.2534,0.365 -0.6726,0.5547 -1.0344,0.7858 0.6455,0.8033 1.2958,1.6178 1.7039,2.5758 -0.4336,0.0414 -0.8671,0.0271 -1.2959,-0.0064 -0.4622,-0.687 -0.7635,-1.4775 -1.3086,-2.1056 -0.2869,-0.4 -0.832,-0.2231 -1.2464,-0.2789 -0.0494,0.7986 -0.0223,1.6003 -0.0367,2.4004 -0.3682,0.0096 -0.7332,0.0096 -1.0966,0.0016 -0.0159,-1.9446 -0.0159,-3.8891 0,-5.8337m1.1253 0.8878c-0.0287,0.4766 -0.0366,0.9548 -0.0191,1.433 0.7236,-0.0272 1.7166,0.3171 2.19,-0.424 0.0749,-0.3539 -0.0016,-0.7826 -0.3554,-0.9548 -0.5978,-0.1227 -1.213,-0.0478 -1.8155,-0.0542z"/>
   <path id="_179249776" class="fil1" d="M175.626 61.0925c0.9213,-0.2025 1.8745,-0.0654 2.8101,-0.1084 0.9213,-0.0654 1.7948,0.2933 2.7065,0.3506 0.3841,0.0255 0.773,0.0574 1.1412,0.1913 0.8862,0.33 1.8473,0.4607 2.6554,0.9835 2.7543,1.205 4.82,3.6707 5.8624,6.4521 0.6806,2.0561 1.0297,4.2446 0.781,6.4075 -0.1801,0.7013 -0.2661,1.4201 -0.4144,2.1262 -0.5323,1.4154 -1.1189,2.8261 -1.9318,4.106 -0.6423,0.6869 -1.1364,1.5205 -1.935,2.0449 -1.1316,0.9771 -2.4259,1.7836 -3.878,2.1789 -1.122,0.2725 -2.2123,0.789 -3.3918,0.714 -1.5827,-0.0366 -3.1671,0.0463 -4.7466,-0.0382 -2.5407,-0.5913 -5.1468,-1.4106 -7.1041,-3.2149 -0.9101,-0.6344 -1.5046,-1.5875 -2.1534,-2.4626 -0.9898,-1.3691 -1.3468,-3.046 -1.7676,-4.6462 -0.1195,-0.7826 -0.0303,-1.5764 -0.0542,-2.3638 -0.0813,-1.8186 0.3236,-3.65 1.0631,-5.3077 1.3469,-3.5576 4.6303,-6.2194 8.3123,-7.0482 0.6822,-0.1148 1.3755,-0.177 2.0449,-0.365m0.6376 4.9395c-0.6343,0.0892 -1.2799,0.1418 -1.8712,0.3985 -1.7438,0.6057 -3.4716,1.6321 -4.3482,3.3201 -1.0042,1.4711 -0.891,3.3328 -0.8479,5.0287 0.1115,1.1715 0.5243,2.308 1.1157,3.3233 1.001,1.7438 2.8881,2.7256 4.71,3.403 0.7794,0.3268 1.6321,0.2598 2.4578,0.263 1.4695,0.0191 2.9774,-0.1068 4.3418,-0.6949 1.0376,-0.2949 1.8633,-1.0074 2.6921,-1.6641 1.4536,-1.3883 2.2761,-3.4253 2.1629,-5.4352 -0.0271,-0.6742 0.0909,-1.3787 -0.1578,-2.0227 -0.2327,-0.6312 -0.3267,-1.3086 -0.6359,-1.9111 -0.5532,-1.2321 -1.5286,-2.2458 -2.6921,-2.9168 -1.1254,-0.6025 -2.324,-1.2177 -3.6358,-1.1763 -1.0981,0.0351 -2.2027,-0.0685 -3.2914,0.0845z"/>
   <path id="_179249704" class="fil1" d="M203.945 61.9101c0.8559,-0.0605 1.6704,-0.4176 2.5391,-0.3745 1.7405,0.0558 3.5416,-0.1785 5.2216,0.4001 1.0408,0.4781 2.1629,0.7985 3.1001,1.4823 1.8091,1.1428 3.2707,2.8292 4.1219,4.7945 0.373,1.0328 0.9006,2.0178 1.0264,3.1256 0.3746,1.2193 0.2041,2.4977 0.2471,3.752 0.0654,1.4457 -0.483,2.8165 -0.8974,4.1761 -0.4271,1.5237 -1.4249,2.7893 -2.4067,3.9975 -0.4941,0.6344 -1.1859,1.0599 -1.7932,1.5716 -0.679,0.5626 -1.5301,0.8288 -2.3143,1.2002 -0.7348,0.3555 -1.5573,0.4447 -2.3287,0.6869 -1.0823,0.33 -2.2235,0.1483 -3.3345,0.1961 -1.0536,0.0446 -2.0992,-0.1211 -3.1352,-0.2678 -0.7938,-0.3219 -1.68,-0.416 -2.4036,-0.8989 -0.7125,-0.4017 -1.4329,-0.7986 -2.1948,-1.0998 -0.0223,3.7743 -0.0064,7.5503 -0.0064,11.3263 0.0032,0.6806 -0.3188,1.3612 -0.84,1.7963 -0.6694,0.5658 -1.6114,0.3443 -2.4116,0.3523 -0.7475,-0.0239 -1.0344,-0.8241 -1.2894,-1.3979 -0.3762,-0.7858 -0.228,-1.6736 -0.2471,-2.512 -0.0016,-6.2162 0.0064,-12.4324 -0.0048,-18.6471 -0.0988,-1.7708 0.5117,-3.4699 0.6249,-5.2248 0.6901,-2.3829 1.8122,-4.8152 3.8891,-6.2959 0.7236,-0.4639 1.4042,-1.0217 2.2394,-1.2799 0.8687,-0.279 1.672,-0.7843 2.5981,-0.8592m1.8011 4.4709c-1.2975,0.1993 -2.5168,0.7842 -3.5831,1.5302 -0.9627,0.8193 -1.8091,1.8473 -2.1757,3.0746 -0.1929,0.6232 -0.5993,1.1923 -0.6057,1.8633 -0.0622,1.7182 0.0096,3.4986 0.7731,5.075 0.4526,1.1906 1.3659,2.1406 2.3494,2.9185 0.8352,0.6774 1.9063,0.9037 2.9025,1.24 0.9531,0.3523 1.9908,0.2534 2.9853,0.2024 1.4282,-0.263 2.8882,-0.6583 4.0709,-1.5381 1.8362,-1.291 2.7909,-3.505 3.0842,-5.6743 0.3666,-3.2293 -1.3819,-6.6402 -4.3227,-8.0843 -1.7006,-0.8288 -3.6452,-0.7284 -5.4782,-0.6073z"/>
   <path id="_179249632" class="fil1" d="M235.557 61.6057c0.9293,-0.1546 2.1167,-0.1976 2.767,0.6184 0.5754,0.5754 0.4878,1.4441 0.4878,2.1885 -0.0128,6.8538 -0.0016,13.7091 -0.0064,20.5629 -0.0957,0.891 -0.7619,1.8569 -1.7262,1.9143 -0.7762,0.075 -1.6864,0.1786 -2.3096,-0.3905 -0.4144,-0.322 -0.5881,-0.8527 -0.5674,-1.3596 0.0064,-6.8044 0.0032,-13.6072 0.0016,-20.4099 0.0159,-0.8129 -0.1339,-1.6975 0.3219,-2.4275 0.1849,-0.4049 0.6408,-0.5563 1.0313,-0.6966z"/>
   <path id="_179219936" class="fil1" d="M251.813 61.6009c1.7437,-0.1339 3.5272,-0.1323 5.2407,0.2598 1.5461,0.5579 3.2213,0.899 4.5267,1.9685 1.2672,1.0679 2.4179,2.3144 3.2213,3.7744 0.357,0.8065 0.7938,1.6401 0.7348,2.5518 0.0382,0.7954 -0.5148,1.5652 -1.28,1.7868 -1.02,0.5036 -2.429,0.2646 -3.0698,-0.7189 -0.5929,-0.9005 -0.9022,-1.9924 -1.6927,-2.7558 -0.4926,-0.5388 -1.1238,-0.9149 -1.7198,-1.3214 -0.7842,-0.5467 -1.7693,-0.6136 -2.6714,-0.8352 -2.9838,-0.6886 -6.4506,0.3953 -8.1752,3.0077 -0.4957,0.8448 -1.0328,1.7214 -1.1428,2.7144 -0.0797,0.5531 -0.2247,1.0935 -0.3204,1.6434 -0.1291,0.7937 0.1148,1.5731 0.2056,2.3557 0.1961,1.5366 1.0217,2.9296 2.0386,4.0677 0.9771,0.8432 2.0801,1.6449 3.3791,1.884 1.5158,0.4495 3.183,0.5275 4.6925,0.0127 0.765,-0.1753 1.5572,-0.3379 2.1884,-0.8383 1.2241,-0.7173 2.2681,-1.7581 2.8626,-3.0587 0.3571,-0.5882 0.534,-1.4936 1.3182,-1.6434 0.9771,-0.0653 2.0801,-0.1673 2.9105,0.4654 0.5722,0.3475 0.475,1.1078 0.4606,1.68 -0.0621,1.2257 -0.8113,2.2379 -1.4154,3.2516 -0.7778,1.3484 -1.9397,2.453 -3.2611,3.2627 -1.1604,0.6057 -2.343,1.2337 -3.6436,1.4728 -0.695,0.1338 -1.3804,0.3586 -2.0944,0.3443 -1.7741,-0.0271 -3.5752,0.1147 -5.3094,-0.3332 -1.5668,-0.5578 -3.116,-1.2241 -4.4693,-2.2043 -2.3813,-1.7996 -3.9497,-4.5968 -4.3402,-7.5456 -0.2486,-1.2113 -0.1546,-2.453 -0.1498,-3.6803 0.2008,-1.4983 0.3459,-3.0316 0.9245,-4.4422 0.341,-0.6599 0.6471,-1.3405 1.0121,-1.9876 0.6169,-0.8974 1.3787,-1.6912 2.2108,-2.3925 1.2639,-0.985 2.7606,-1.6226 4.27,-2.1294 0.8049,-0.381 1.68,-0.5276 2.5583,-0.6169z"/>
   <path id="_179219864" class="fil1" d="M102.109 62.0791c0.8623,-0.3156 1.7915,-0.161 2.6889,-0.1913 0.9101,0.0271 1.841,-0.0988 2.7351,0.1307 1.4011,0.3411 2.8372,0.6886 4.0677,1.4744 0.4144,0.263 0.8687,0.4527 1.3261,0.628 0.4734,-0.7715 0.6296,-1.9159 1.6417,-2.19 0.8273,-0.0654 1.841,-0.2487 2.4897,0.4112 0.671,0.5228 0.6296,1.4552 0.7125,2.2219 0.0064,6.7518 -0.0032,13.5036 0.0047,20.2537 -0.0286,0.6998 -0.1529,1.4537 -0.6168,2.0068 -0.8193,0.5004 -1.8457,0.5403 -2.7686,0.3921 -0.7443,-0.4591 -1.2974,-1.2321 -1.3022,-2.1311 -0.8097,0.2328 -1.4808,0.7523 -2.2139,1.1413 -3.6086,1.3101 -7.6954,1.468 -11.3215,0.129 -0.8735,-0.4 -1.6992,-0.9069 -2.4706,-1.4791 -2.0561,-1.4042 -3.3488,-3.6516 -4.2175,-5.9325 -0.7364,-2.3606 -1.0009,-4.9443 -0.314,-7.3463 0.4543,-2.2665 1.5955,-4.3737 3.1241,-6.0951 0.8798,-0.9627 2.0115,-1.6433 3.1209,-2.3064 1.02,-0.6009 2.2139,-0.7284 3.3137,-1.1173m1.0312 4.6861c-1.5764,0.4765 -3.1703,1.1173 -4.2971,2.3701 -1.4808,1.8569 -2.1487,4.3354 -1.7996,6.6848 0.2806,2.6571 2.0147,5.1675 4.5219,6.1717 0.9819,0.4159 2.0594,0.467 3.097,0.663 1.0169,0.1833 1.994,-0.2391 2.9886,-0.3746 1.1651,-0.2869 2.1916,-0.9691 3.124,-1.7038 0.754,-0.7093 1.2608,-1.6338 1.7581,-2.5312 0.2981,-0.5164 0.2694,-1.1316 0.432,-1.6911 0.2853,-0.9404 0.2836,-1.9477 0.1482,-2.9136 -0.2837,-1.0839 -0.4734,-2.2299 -1.111,-3.1767 -0.475,-0.6806 -0.9053,-1.4249 -1.6018,-1.9031 -0.6695,-0.6249 -1.5174,-0.9962 -2.3622,-1.3166 -1.3006,-0.4511 -2.6921,-0.3443 -4.0437,-0.3586 -0.2869,0.0064 -0.577,0.0064 -0.8544,0.0797z"/>
   <path id="_179219792" class="fil1" d="M120.622 62.2146c0.671,-0.4447 1.527,-0.3523 2.2841,-0.255 1.0248,0.1529 1.2846,1.3149 1.5779,2.1374 0.9532,-0.2662 1.7358,-0.9309 2.6873,-1.2082 1.2417,-0.3634 2.4339,-1.001 3.7601,-0.9866 0.8957,0.0303 1.9461,-0.1929 2.6809,0.4574 0.3969,0.4894 0.7842,1.0695 0.7635,1.7278 0.0239,0.7173 -0.1451,1.5844 -0.8161,1.9717 -0.7714,0.3586 -1.6082,0.6105 -2.4642,0.6232 -0.8368,-0.0127 -1.5859,0.4032 -2.3765,0.6104 -1.4345,0.5643 -2.6523,1.68 -3.3058,3.0826 -0.3857,0.7428 -0.4988,1.5796 -0.7682,2.3654 -0.3267,0.9086 -0.2104,1.8824 -0.2231,2.8276 0,2.8707 0,5.7428 0,8.6135 -0.059,0.8352 -0.1212,1.7373 -0.5866,2.4594 -0.6105,0.5132 -1.4138,0.9993 -2.2474,0.8017 -0.8815,-0.196 -1.5637,-0.9882 -1.7852,-1.8425 -0.2566,-0.7683 -0.1578,-1.5876 -0.169,-2.3813 0.0033,-6.272 0,-12.5425 0,-18.8145 0.0734,-0.7906 0.2072,-1.7788 0.9883,-2.19z"/>
  </g>
  <path class="fil2 str0" d="M98.8777 45.7398l0 -10.8663c0,-0.1149 0.0226,-0.2245 0.0652,-0.3261 0.0453,-0.1016 0.1077,-0.1898 0.187,-0.2673 0.0821,-0.0748 0.1729,-0.1336 0.2777,-0.1764 0.1077,-0.0401 0.2239,-0.0615 0.3513,-0.0615l7.6771 0c0.2437,0 0.4534,0.0802 0.6235,0.2433 0.1729,0.1603 0.2579,0.3582 0.2579,0.5854 0,0.2299 -0.085,0.4277 -0.2579,0.5881 -0.1701,0.163 -0.3798,0.2432 -0.6235,0.2432l-6.7985 0 0 3.7744 4.8828 0c0.2437,0 0.4506,0.0802 0.6206,0.2433 0.1729,0.1604 0.2579,0.3582 0.2579,0.5854 0,0.2299 -0.085,0.4277 -0.2579,0.5881 -0.17,0.1631 -0.3769,0.2433 -0.6206,0.2433l-4.8828 0 0 4.6031c0,0.2298 -0.085,0.4277 -0.2578,0.588 -0.1701,0.1631 -0.3798,0.2433 -0.6208,0.2433 -0.2436,0 -0.4534,-0.0802 -0.6233,-0.2433 -0.1729,-0.1603 -0.2579,-0.3582 -0.2579,-0.588zm19.8975 0.8313c-0.2494,0 -0.4563,-0.0775 -0.615,-0.2352 -0.1615,-0.1551 -0.2436,-0.3475 -0.2494,-0.5721 -0.3826,0.2834 -0.7849,0.4865 -1.2129,0.6148 -0.4251,0.1283 -0.887,0.1925 -1.3857,0.1925 -0.5923,0 -1.1534,-0.1096 -1.6777,-0.3261 -0.5271,-0.2165 -0.9862,-0.5079 -1.3801,-0.8795 -0.391,-0.3715 -0.7028,-0.8046 -0.9324,-1.2991 -0.2295,-0.4972 -0.3457,-1.0238 -0.3457,-1.5825l0 -3.868c0,-0.2245 0.0851,-0.417 0.2522,-0.5774 0.1701,-0.1577 0.3769,-0.2379 0.6178,-0.2379 0.2381,0 0.4421,0.0802 0.6121,0.2379 0.1672,0.1604 0.2522,0.3529 0.2522,0.5774l0 3.868c0,0.3395 0.0681,0.6576 0.2041,0.9543 0.136,0.2994 0.3203,0.5587 0.5554,0.7806 0.2353,0.2218 0.5101,0.3956 0.8276,0.5239 0.3145,0.1283 0.6517,0.1925 1.0145,0.1925 0.3542,0 0.6886,-0.0642 1.0031,-0.1925 0.3174,-0.1283 0.5923,-0.3047 0.8304,-0.5293 0.238,-0.2245 0.425,-0.4838 0.5611,-0.7779 0.1361,-0.294 0.204,-0.6121 0.204,-0.9516l0 -3.868c0,-0.2245 0.0851,-0.417 0.2522,-0.5774 0.1701,-0.1577 0.3769,-0.2379 0.6179,-0.2379 0.238,0 0.4421,0.0802 0.612,0.2379 0.1673,0.1604 0.2523,0.3529 0.2523,0.5774l0 7.1399c0,0.2245 -0.085,0.417 -0.2523,0.5774 -0.1699,0.1577 -0.3769,0.2379 -0.6177,0.2379zm6.8332 -7.9632c0.7368,-0.5373 1.604,-0.8073 2.5988,-0.8073 0.5809,0 1.1335,0.1069 1.6578,0.3208 0.5243,0.2138 0.9833,0.5052 1.3829,0.8741 0.3968,0.3662 0.7142,0.8019 0.9466,1.2991 0.2324,0.4999 0.3485,1.0292 0.3485,1.5932l0 3.86c0,0.2299 -0.085,0.425 -0.2523,0.5854 -0.1699,0.1577 -0.374,0.2379 -0.612,0.2379 -0.241,0 -0.4478,-0.0802 -0.6178,-0.2379 -0.1672,-0.1604 -0.2522,-0.3555 -0.2522,-0.5854l0 -3.86c0,-0.3341 -0.068,-0.6496 -0.2069,-0.9463 -0.1389,-0.2994 -0.3259,-0.5587 -0.5611,-0.7805 -0.2353,-0.2219 -0.5102,-0.3983 -0.8276,-0.5293 -0.3145,-0.131 -0.6489,-0.1951 -1.0031,-0.1951 -0.3628,0 -0.6971,0.0641 -1.0117,0.1924 -0.3118,0.1283 -0.5866,0.3048 -0.8247,0.5293 -0.2381,0.2245 -0.4251,0.4838 -0.5611,0.7832 -0.136,0.2967 -0.2041,0.6122 -0.2041,0.9463l0 3.86c0,0.2299 -0.085,0.425 -0.2522,0.5854 -0.17,0.1577 -0.374,0.2379 -0.6121,0.2379 -0.2409,0 -0.4477,-0.0802 -0.6177,-0.2379 -0.1672,-0.1604 -0.2523,-0.3555 -0.2523,-0.5854l0 -7.1239c0,-0.2245 0.0851,-0.4197 0.2523,-0.58 0.17,-0.1631 0.3768,-0.2433 0.6177,-0.2433 0.2381,0 0.4421,0.0802 0.6121,0.2433 0.1672,0.1603 0.2522,0.3501 0.2522,0.564zm18.7357 3.5766c0,-0.3742 -0.0765,-0.7271 -0.2296,-1.0612 -0.1501,-0.3315 -0.3599,-0.6202 -0.6206,-0.8714 -0.2635,-0.2513 -0.5724,-0.4491 -0.9267,-0.5962 -0.3542,-0.147 -0.7339,-0.2191 -1.1363,-0.2191 -0.4109,0 -0.7935,0.0721 -1.1477,0.2191 -0.3543,0.1471 -0.6604,0.3422 -0.9211,0.5908 -0.2607,0.2486 -0.4675,0.54 -0.6177,0.8741 -0.1531,0.3342 -0.2296,0.6897 -0.2296,1.0639 0,0.3769 0.0765,0.7324 0.2296,1.0666 0.1502,0.3341 0.357,0.6255 0.6177,0.8741 0.2607,0.2486 0.5668,0.4437 0.9211,0.5908 0.3542,0.147 0.7368,0.2192 1.1477,0.2192 0.4024,0 0.7821,-0.0722 1.1363,-0.2192 0.3543,-0.1471 0.6632,-0.3449 0.9267,-0.5961 0.2607,-0.2513 0.4705,-0.54 0.6206,-0.8715 0.1531,-0.3341 0.2296,-0.687 0.2296,-1.0639zm-2.9132 -4.3839c1.0996,0 2.0715,0.3208 2.9132,0.9623l0 -3.9081c0,-0.2352 0.0822,-0.4303 0.2437,-0.5854 0.1644,-0.1524 0.3712,-0.2299 0.6207,-0.2299 0.2408,0 0.4477,0.0775 0.6177,0.2299 0.1672,0.1551 0.2522,0.3502 0.2522,0.5854l0 7.3297c0,1.2216 -0.4534,2.2561 -1.3602,3.1008 -0.9211,0.8581 -2.0149,1.2858 -3.2873,1.2858 -1.2866,0 -2.3805,-0.4277 -3.2902,-1.2831 -0.9068,-0.8581 -1.3603,-1.8899 -1.3603,-3.1035 0,-1.2109 0.4535,-2.2427 1.3603,-3.1008 0.9097,-0.8554 2.0064,-1.2831 3.2902,-1.2831zm13.5609 1.636c-0.4109,0 -0.7935,0.0721 -1.1477,0.2191 -0.3543,0.1471 -0.6604,0.3422 -0.9211,0.5908 -0.2606,0.2486 -0.4675,0.54 -0.6177,0.8741 -0.1531,0.3342 -0.2295,0.6897 -0.2295,1.0639 0,0.3769 0.0764,0.7324 0.2295,1.0666 0.1502,0.3341 0.3571,0.6255 0.6177,0.8741 0.2607,0.2486 0.5668,0.4437 0.9211,0.5908 0.3542,0.147 0.7368,0.2192 1.1477,0.2192 0.4024,0 0.7822,-0.0722 1.1364,-0.2192 0.3543,-0.1471 0.6631,-0.3449 0.9266,-0.5961 0.2607,-0.2513 0.4705,-0.54 0.6207,-0.8715 0.153,-0.3341 0.2296,-0.687 0.2296,-1.0639 0,-0.3742 -0.0766,-0.7271 -0.2296,-1.0612 -0.1502,-0.3315 -0.36,-0.6202 -0.6207,-0.8714 -0.2635,-0.2513 -0.5723,-0.4491 -0.9266,-0.5962 -0.3542,-0.147 -0.734,-0.2191 -1.1364,-0.2191zm2.9133 6.3192l0 -0.155c-0.4167,0.3127 -0.8672,0.5533 -1.3547,0.719 -0.4874,0.1684 -1.0059,0.2513 -1.5586,0.2513 -1.2866,0 -2.3804,-0.4277 -3.2901,-1.2831 -0.9069,-0.8581 -1.3603,-1.8899 -1.3603,-3.1035 0,-1.2109 0.4534,-2.2427 1.3603,-3.1008 0.9097,-0.8554 2.0035,-1.2831 3.2901,-1.2831 1.2724,0 2.3662,0.4277 3.2873,1.2831 0.9068,0.8581 1.3603,1.8899 1.3603,3.1008l0 3.5713c0,0.2245 -0.0851,0.417 -0.2522,0.5774 -0.1701,0.1577 -0.3742,0.2379 -0.6122,0.2379 -0.2408,0 -0.4477,-0.0802 -0.6177,-0.2379 -0.1672,-0.1604 -0.2522,-0.3529 -0.2522,-0.5774zm13.0735 -1.668c0.2464,0 0.4534,0.0775 0.6177,0.2299 0.1616,0.155 0.2437,0.3501 0.2437,0.5854 0,0.2299 -0.0906,0.4303 -0.272,0.6014 -0.8587,0.7111 -1.8704,1.0666 -3.0322,1.0666 -1.2839,0 -2.3806,-0.4277 -3.2874,-1.2831 -0.9069,-0.8581 -1.3603,-1.8899 -1.3603,-3.1035 0,-1.2109 0.4534,-2.2427 1.3603,-3.1008 0.9068,-0.8554 2.0035,-1.2831 3.2874,-1.2831 1.1675,0 2.1792,0.3555 3.0322,1.0666 0.1984,0.1657 0.2976,0.3715 0.2976,0.6175 0,0.2352 -0.0823,0.4303 -0.2437,0.5881 -0.1645,0.1577 -0.3713,0.2352 -0.6206,0.2352 -0.2097,0 -0.3969,-0.0615 -0.564,-0.1871 -0.2806,-0.2272 -0.5781,-0.3957 -0.8871,-0.5106 -0.3117,-0.1149 -0.6489,-0.1737 -1.0144,-0.1737 -0.4025,0 -0.7822,0.0721 -1.1365,0.2165 -0.3542,0.1416 -0.6631,0.3395 -0.9294,0.5854 -0.2664,0.2486 -0.4761,0.54 -0.6264,0.8741 -0.153,0.3341 -0.2295,0.6923 -0.2295,1.0719 0,0.3823 0.0765,0.7405 0.2295,1.0746 0.1503,0.3341 0.36,0.6255 0.6264,0.8741 0.2663,0.2459 0.5752,0.4438 0.9294,0.5854 0.3543,0.1444 0.734,0.2166 1.1365,0.2166 0.3655,0 0.7027,-0.0562 1.0144,-0.1685 0.309,-0.1122 0.6037,-0.2806 0.8786,-0.5052 0.1558,-0.1122 0.3372,-0.1684 0.5498,-0.1737zm7.5048 -7.8483c0,0.2673 -0.0991,0.4945 -0.2976,0.6816 -0.1983,0.1898 -0.4392,0.2834 -0.7225,0.2834 -0.2806,0 -0.5215,-0.0936 -0.7226,-0.2834 -0.1985,-0.1871 -0.2976,-0.4143 -0.2976,-0.6816 0,-0.2646 0.0991,-0.4918 0.2976,-0.679 0.2011,-0.1898 0.442,-0.2833 0.7226,-0.2833 0.2833,0 0.5242,0.0935 0.7225,0.2833 0.1985,0.1872 0.2976,0.4144 0.2976,0.679zm-1.8816 9.5083l0 -7.1265c0,-0.2299 0.085,-0.4224 0.2522,-0.5828 0.17,-0.1577 0.374,-0.2379 0.6121,-0.2379 0.2352,0 0.4392,0.0802 0.6093,0.2379 0.1672,0.1604 0.255,0.3529 0.2607,0.5828l0 7.1265c-0.0057,0.2299 -0.0935,0.425 -0.2607,0.5854 -0.1701,0.1577 -0.3741,0.2379 -0.6093,0.2379 -0.2381,0 -0.4421,-0.0802 -0.6121,-0.2379 -0.1672,-0.1604 -0.2522,-0.3555 -0.2522,-0.5854zm15.7486 -3.5633c0,1.2216 -0.4534,2.2561 -1.3602,3.1035 -0.9211,0.8554 -2.015,1.2831 -3.2873,1.2831 -1.2866,0 -2.3805,-0.4277 -3.2902,-1.2831 -0.9068,-0.8581 -1.3603,-1.8899 -1.3603,-3.1035 0,-1.2109 0.4535,-2.2427 1.3603,-3.1008 0.9097,-0.8554 2.0036,-1.2831 3.2902,-1.2831 1.2723,0 2.3662,0.4277 3.2873,1.2831 0.4534,0.4304 0.7906,0.9008 1.0145,1.4194 0.2267,0.5159 0.3401,1.0773 0.3457,1.6814zm-4.6475 -2.7479c-0.4109,0 -0.7936,0.0721 -1.1477,0.2191 -0.3543,0.1471 -0.6604,0.3422 -0.9211,0.5908 -0.2607,0.2486 -0.4675,0.54 -0.6177,0.8741 -0.1531,0.3342 -0.2296,0.6897 -0.2296,1.0639 0,0.3769 0.0765,0.7324 0.2296,1.0666 0.1502,0.3341 0.357,0.6255 0.6177,0.8741 0.2607,0.2486 0.5668,0.4437 0.9211,0.5908 0.3541,0.147 0.7368,0.2192 1.1477,0.2192 0.4024,0 0.7821,-0.0722 1.1363,-0.2192 0.3543,-0.1471 0.6632,-0.3449 0.9267,-0.5961 0.2607,-0.2513 0.4705,-0.54 0.6206,-0.8715 0.1531,-0.3341 0.2296,-0.687 0.2296,-1.0639 0,-0.3742 -0.0765,-0.7271 -0.2296,-1.0612 -0.1501,-0.3315 -0.3599,-0.6202 -0.6206,-0.8714 -0.2635,-0.2513 -0.5724,-0.4491 -0.9267,-0.5962 -0.3542,-0.147 -0.7339,-0.2191 -1.1363,-0.2191zm1.7938 -3.9937l-1.6607 1.5584c-0.1558,0.1471 -0.3542,0.2192 -0.5979,0.2192 -0.2494,0 -0.4563,-0.0775 -0.6178,-0.2299 -0.1644,-0.155 -0.2465,-0.3501 -0.2465,-0.5854 0,-0.2245 0.0736,-0.4089 0.2154,-0.556l1.6606 -1.5584c0.1785,-0.1631 0.3826,-0.2433 0.615,-0.2433 0.2493,0 0.4562,0.0802 0.6177,0.238 0.1645,0.1603 0.2466,0.3555 0.2466,0.5854 0,0.2352 -0.0765,0.425 -0.2324,0.572zm8.8425 3.165c0.7368,-0.5373 1.604,-0.8073 2.5987,-0.8073 0.581,0 1.1335,0.1069 1.6579,0.3208 0.5242,0.2138 0.9832,0.5052 1.3828,0.8741 0.3968,0.3662 0.7142,0.8019 0.9466,1.2991 0.2324,0.4999 0.3486,1.0292 0.3486,1.5932l0 3.86c0,0.2299 -0.085,0.425 -0.2523,0.5854 -0.17,0.1577 -0.374,0.2379 -0.612,0.2379 -0.241,0 -0.4478,-0.0802 -0.6179,-0.2379 -0.1672,-0.1604 -0.2522,-0.3555 -0.2522,-0.5854l0 -3.86c0,-0.3341 -0.068,-0.6496 -0.2068,-0.9463 -0.1389,-0.2994 -0.3259,-0.5587 -0.5612,-0.7805 -0.2352,-0.2219 -0.5101,-0.3983 -0.8275,-0.5293 -0.3146,-0.131 -0.6489,-0.1951 -1.0031,-0.1951 -0.3628,0 -0.6972,0.0641 -1.0117,0.1924 -0.3118,0.1283 -0.5867,0.3048 -0.8247,0.5293 -0.2381,0.2245 -0.4251,0.4838 -0.5611,0.7832 -0.1361,0.2967 -0.2041,0.6122 -0.2041,0.9463l0 3.86c0,0.2299 -0.085,0.425 -0.2522,0.5854 -0.1701,0.1577 -0.374,0.2379 -0.6122,0.2379 -0.2408,0 -0.4477,-0.0802 -0.6177,-0.2379 -0.1672,-0.1604 -0.2522,-0.3555 -0.2522,-0.5854l0 -7.1239c0,-0.2245 0.085,-0.4197 0.2522,-0.58 0.17,-0.1631 0.3769,-0.2433 0.6177,-0.2433 0.2382,0 0.4421,0.0802 0.6122,0.2433 0.1672,0.1603 0.2522,0.3501 0.2522,0.564z"/>
 </g>
</svg>
